<svg xmlns="http://www.w3.org/2000/svg" viewBox="0 0 1810 1388.61"><defs><linearGradient id="a" x1="905" y1="5" x2="905" y2="888.39" gradientUnits="userSpaceOnUse"><stop offset="0" stop-color="#78e6af"/><stop offset="1" stop-color="#5f8cc8"/></linearGradient></defs><g data-name="biowanze Logo color Negativ"><path d="M905 888.39c-243.48 0-441.57-198.09-441.57-441.57S661.52 5.25 905 5.25a42 42 0 110 83.93c-197.2 0-357.64 160.44-357.64 357.64S707.8 804.46 905 804.46a42 42 0 110 83.93zm441.34-46.46a42 42 0 01-41.73 46.46C1061.12 888.39 863 690.3 863 446.82c0-228.56 174.55-417.09 397.35-439.35 0 0 26.22-2.34 61.2-2.47A24.37 24.37 0 011346 28.16c.33 6.73.59 13.72.59 19.06 0 228.55-174.55 417.09-397.34 439.35 19.78 178 170.7 317.06 353.73 317.89 21.7.09 41.11 15.86 43.36 37.47zM1237.15 95.68C1094 123.13 980.91 236.18 953.46 379.36a16.31 16.31 0 0019 19c143.18-27.45 256.23-140.51 283.68-283.68a16.29 16.29 0 00-18.99-19z" fill="url(#a)"/><path d="M5 1358.35v-338.82q0-9.09 8.85-14.65t23-5.55q14.14 0 23.76 5.56t9.6 14.65v155.07q8.59-16.3 25.54-27.54t39.18-11.22q36.9 0 63.47 30.34t26.54 72.3V1280q0 41-26.79 72.31t-61.7 31.35a80.28 80.28 0 01-42.46-12q-19.74-12-27.82-28.3v14.81q0 7.65-8.85 14.29a33.21 33.21 0 01-20.47 6.63q-13.66 0-22.76-6.31T5 1358.35zm65.22-69.52q0 9.54 13.91 23.34t31.6 13.79q17.7 0 30.84-14.3t13.15-31.86v-41.15q0-17.57-13.15-31.36t-31.34-13.8q-17.2 0-31.1 12.54t-13.91 32.62zm199.23 69.49v-199.21q0-9.1 8.74-14.67t22.36-5.56q13.59 0 22.59 5.56t9 14.67v199.21q0 7.59-9.49 14.16a37.8 37.8 0 01-22.1 6.57q-13.14 0-22.12-6.32t-8.98-14.41zM373.6 1280v-41.46q0-41.46 32.35-72t77.37-30.59q44 0 76.85 30.34t32.86 72.3V1280q0 41-32.86 72.31t-76.85 31.35q-44 0-76.86-31.35T373.6 1280zm65.22-.15q0 18.06 13.15 32.12t31.35 14q17.69 0 31.09-14t13.41-32.12v-41.15q0-17.06-13.41-31.11t-31.09-14q-18.19 0-31.35 13.8t-13.15 31.36zm178-126.26q0-6.06 6.32-10.36a23.41 23.41 0 0113.39-4.3q9.11 0 11.63 7.59l64.72 180L765 1162.14q2.13-7.35 11.06-7.35t11.08 8.6l50.06 166.35 66.23-183.23q1.51-7.63 11.13-7.63a24.38 24.38 0 0113.39 4q6.33 4 6.33 10.61a13.37 13.37 0 01-2 7.59L853.33 1375q-2.54 8.09-13.14 8.09c-5 0-8.47-2.45-10.32-7.34l-52.79-164.89-51.83 161.87q-2.87 10.37-13.9 10.36-10.62 0-13.65-10.11l-78.88-211.86a17 17 0 01-2.02-7.58zm334.71 162.31q0-39.78 30.09-55.29t87.73-15.5h25.79v-11.9q0-27.29-14.67-47.38t-45-20.1q-20.24 0-36.66 7.2t-17.44 7.18a10.9 10.9 0 01-9.61-5.47 21.49 21.49 0 01-3.54-11.95q0-9.59 21.74-17.69a132.39 132.39 0 0146.53-8.09q47.51 0 69.52 27.56t22 70v131.47a11.73 11.73 0 01-4.55 9.35c-3 2.53-6.92 3.79-11.63 3.79a15.83 15.83 0 01-10.88-3.79 12 12 0 01-4.29-9.35v-22.25q-33.89 38.94-76.35 38.93-30.35 0-49.55-16.94t-19.25-49.83zm32.87-3q0 21.23 12.13 31.6t31.86 10.37q23.76 0 45.26-17.7t21.49-35.4v-32.36h-21.24a322.46 322.46 0 00-34.13 1.52 156.93 156.93 0 00-27.56 5.56q-13.65 4.06-20.73 13.15t-7.1 23.18zm195.17 53.09V1152a10.37 10.37 0 014.55-8.85q4.56-3.29 11.63-3.29a16.67 16.67 0 0110.62 3.59 10.77 10.77 0 014.55 8.71v23.59q8.6-16.38 26.3-27.66t41.45-11.26q36.4 0 63.21 27.81t26.79 66.74v134.5a11.16 11.16 0 01-5.05 9.61 19.77 19.77 0 01-11.63 3.53 18.92 18.92 0 01-11.12-3.53 11.07 11.07 0 01-5.07-9.58v-134.14q0-24.72-18.7-44.4t-44.49-19.67q-23.77 0-42 17.66t-18.21 46.41v134.17q0 5.05-5.05 9.08a18.14 18.14 0 01-11.63 4 16.84 16.84 0 01-11.63-4q-4.54-4.02-4.54-9.11zm231.06.23c0-3.72 1.69-7.93 5.07-12.66l123.87-184.77h-111.76a10.76 10.76 0 01-8.6-4.29 15 15 0 01-3.53-9.86 15.73 15.73 0 013.53-10.37 10.77 10.77 0 018.6-4.3h143.09a12.54 12.54 0 0112.64 13.15 20.29 20.29 0 01-4 12.16l-124.39 185h122.37a10.86 10.86 0 018.59 4.23 16.06 16.06 0 013.54 10.68 14.68 14.68 0 01-3.54 9.7 10.84 10.84 0 01-8.59 4.21h-153.25a13 13 0 01-9.86-4 12.62 12.62 0 01-3.8-8.96zm203.25-79.62v-56.7q0-37.94 28.33-65.48t68.25-27.56q38.43 0 66.49 26.32T1805 1229q0 14.13-3.29 22.7t-10.62 12.11a50.48 50.48 0 01-13.4 4.54 107.68 107.68 0 01-16.68 1h-114.28V1288q0 29.84 21.49 47.78t55.37 18q17.19 0 30.08-5t19.72-10.12q6.83-5 10.88-5 5.55 0 9.86 5.31c2.85 3.53 4.29 7 4.29 10.36q0 10.62-21.74 22t-54.1 11.37q-48 0-78.37-26.54t-30.35-69.64zm32.87-41.46h101.13q15.18 0 20.22-3.26t5.06-13.82q0-25.12-18-44.22t-45.25-19.09q-26.3 0-44.75 18.09t-18.43 43.16z" fill="#fff"/><path d="M347.81 1000.79a115.28 115.28 0 01-91.22 91.21 5.24 5.24 0 01-6.11-6.11 115.28 115.28 0 0191.22-91.22 5.24 5.24 0 016.11 6.12z" fill="#78e6af"/></g></svg>